<svg id="SvgjsSvg1048" width="256" height="256" xmlns="http://www.w3.org/2000/svg" version="1.1" xmlns:xlink="http://www.w3.org/1999/xlink" xmlns:svgjs="http://svgjs.com/svgjs"><defs id="SvgjsDefs1049"></defs><g id="SvgjsG1050"><svg xmlns="http://www.w3.org/2000/svg" data-name="Layer 1" viewBox="0 0 24 24" width="256" height="256"><path d="M12,0A12,12,0,1,0,24,12,12.013,12.013,0,0,0,12,0Zm0,22A10,10,0,1,1,22,12,10.011,10.011,0,0,1,12,22Z" fill="#2aa3dd" class="color000 svgShape"></path><path d="M17.515,14.143,13,11.434V6a1,1,0,0,0-2,0v6a1.075,1.075,0,0,0,.485.857l5,3a1,1,0,1,0,1.03-1.714Z" fill="#2aa3dd" class="color000 svgShape"></path></svg></g></svg>