<svg id="SvgjsSvg1001" width="256" height="256" xmlns="http://www.w3.org/2000/svg" version="1.1" xmlns:xlink="http://www.w3.org/1999/xlink" xmlns:svgjs="http://svgjs.com/svgjs"><defs id="SvgjsDefs1002"></defs><g id="SvgjsG1008"><svg xmlns="http://www.w3.org/2000/svg" enable-background="new 0 0 103 103" viewBox="0 0 103 103" width="256" height="256"><path fill="#2f1212" d="M15.1499023 12.2547884c-.2851563 0-.5673828-.1210938-.765625-.3554688l-1.2607422-1.4960938c-.3554688-.4228516-.3017578-1.0537109.1201172-1.4091797.4228516-.3564453 1.0527344-.3007813 1.4091797.1201172l1.2607422 1.4960938c.3554688.4228516.3017578 1.0537109-.1201172 1.4091797C15.605957 12.17764 15.3774414 12.2547884 15.1499023 12.2547884zM19.3598633 17.2528362c-.2851563 0-.5673828-.1210938-.765625-.3554688l-1.2607422-1.4960947c-.3554688-.4228516-.3017578-1.0537109.1201172-1.4091797.421875-.3564453 1.0527344-.3007813 1.4091797.1201172l1.2607422 1.4960938c.3554688.4228525.3017578 1.0537119-.1201172 1.4091806C19.815918 17.1756878 19.5874023 17.2528362 19.3598633 17.2528362zM18.3754883 12.5311556c-.2851563 0-.5673828-.1210938-.765625-.3554688-.3554688-.4228516-.3017578-1.0537109.1201172-1.4091797l1.4960938-1.2607422c.421875-.3564453 1.0527344-.3007813 1.4091797.1201172.3554688.4228516.3017578 1.0537109-.1201172 1.4091797L19.019043 12.295804C18.831543 12.4540071 18.6020508 12.5311556 18.3754883 12.5311556zM13.3774414 16.7411175c-.2851563 0-.5673828-.1210938-.765625-.3554688-.3554688-.4228525-.3017578-1.0537119.1201172-1.4091806l1.4960938-1.2607422c.4228516-.3574219 1.0527344-.3007813 1.4091797.1201172.3554688.4228516.3017578 1.0537109-.1201172 1.4091797l-1.4960938 1.2607431C13.8334961 16.663969 13.6049805 16.7411175 13.3774414 16.7411175zM90.2319336 82.0858459c-.2851563 0-.5673828-.1210938-.765625-.3554688l-1.2607422-1.4960938c-.3554688-.4228516-.3017578-1.0537109.1201172-1.4091797.4228516-.3564453 1.0517578-.3007813 1.4091797.1201172l1.2607422 1.4960938c.3554688.4228516.3017578 1.0537109-.1201172 1.4091797C90.6879883 82.0086975 90.4594727 82.0858459 90.2319336 82.0858459zM94.4418945 87.0829163c-.2851563 0-.5673828-.1210938-.765625-.3554688l-1.2607422-1.4960938c-.3554688-.4228516-.3017578-1.0537109.1201172-1.4091797.4228516-.3564453 1.0527344-.3007813 1.4091797.1201172l1.2607422 1.4960938c.3554688.4228516.3017578 1.0537109-.1201172 1.4091797C94.8979492 87.0057678 94.6694336 87.0829163 94.4418945 87.0829163zM93.4575195 82.3612366c-.2851563 0-.5683594-.1210938-.765625-.3554688-.3564453-.4228516-.3017578-1.0537109.1201172-1.4091797l1.4960938-1.2597656c.4228516-.3574219 1.0546875-.3007813 1.4091797.1201172.3564453.4228516.3017578 1.0537109-.1201172 1.4091797l-1.4960938 1.2597656C93.9135742 82.2840881 93.684082 82.3612366 93.4575195 82.3612366zM88.4594727 86.5711975c-.2851563 0-.5683594-.1210938-.765625-.3554688-.3564453-.4228516-.3017578-1.0537109.1201172-1.4091797l1.4960938-1.2597656c.4228516-.3583984 1.0546875-.3017578 1.4091797.1201172.3564453.4228516.3017578 1.0537109-.1201172 1.4091797l-1.4960938 1.2597656C88.9155273 86.4940491 88.6860352 86.5711975 88.4594727 86.5711975zM78.4331055 46.4930687c-.2851563 0-.5673828-.1210938-.765625-.3554688l-1.2607422-1.4960938c-.3554688-.4228516-.3017578-1.0537109.1201172-1.4091797.421875-.3564453 1.0527344-.3007813 1.4091797.1201172l1.2607422 1.4960938c.3554688.4228516.3017578 1.0537109-.1201172 1.4091797C78.8891602 46.4159203 78.6606445 46.4930687 78.4331055 46.4930687zM82.6430664 51.4911156c-.2851563 0-.5673828-.1210938-.765625-.3554688l-1.2607422-1.4960938c-.3554688-.4228516-.3017578-1.0537109.1201172-1.4091797.4228516-.3564453 1.0527344-.3007813 1.4091797.1201172l1.2607422 1.4960938c.3554688.4228516.3017578 1.0537109-.1201172 1.4091797C83.0991211 51.4139671 82.8706055 51.4911156 82.6430664 51.4911156zM81.6586914 46.7694359c-.2851563 0-.5673828-.1210938-.765625-.3554688-.3554688-.4228516-.3017578-1.0537109.1201172-1.4091797l1.4960938-1.2607422c.4228516-.3564453 1.0537109-.3007813 1.4091797.1201172.3554688.4228516.3017578 1.0537109-.1201172 1.4091797l-1.4960938 1.2607422C82.1147461 46.6922874 81.8852539 46.7694359 81.6586914 46.7694359zM76.6606445 50.9793968c-.2851563 0-.5673828-.1210938-.7656403-.3554688-.3554535-.4228516-.3017426-1.0537109.1201324-1.4091797l1.4960938-1.2607422c.4228516-.3583984 1.0527344-.3007813 1.4091797.1201172.3554688.4228516.3017578 1.0537109-.1201172 1.4091797l-1.4960938 1.2607422C77.1166992 50.9022484 76.8881836 50.9793968 76.6606445 50.9793968zM15.3051758 41.5467796c-.3144531 0-.6240234-.1474609-.8183594-.4248047l-1.1259766-1.5996094c-.3183594-.4511719-.2099609-1.0751953.2421875-1.3925781.4511719-.3173828 1.0751953-.2109375 1.3925781.2421875l1.1259766 1.5996094c.3183594.4511719.2099609 1.0751953-.2421875 1.3925781C15.7045898 41.4872093 15.5043945 41.5467796 15.3051758 41.5467796zM19.0698242 46.8885765c-.3144531 0-.6240234-.1474609-.8183594-.4238281l-1.1269531-1.5996094c-.3183594-.4521484-.2099609-1.0751953.2412109-1.3935547.4511719-.3173828 1.0761719-.2109375 1.3935547.2412109l1.1269531 1.5996094c.3183594.4521484.2099609 1.0751953-.2412224 1.3935547C19.4702148 46.8290062 19.269043 46.8885765 19.0698242 46.8885765zM18.4956055 42.099514c-.3144531 0-.6240234-.1474609-.8183594-.4238281-.3183594-.4511719-.2099609-1.0751953.2412109-1.3935547l1.5986328-1.1269531c.4501953-.3164063 1.0761719-.2099609 1.3935547.2412109.3183594.4511719.2099609 1.0751953-.2412109 1.3935547l-1.5986328 1.1269531C18.8959961 42.0399437 18.6948242 42.099514 18.4956055 42.099514zM13.1538086 45.8631859c-.3144531 0-.6240234-.1474609-.8183594-.4238281-.3183594-.4521484-.2099609-1.0751953.2412109-1.3935547l1.5996094-1.1269531c.4501953-.3173828 1.0761719-.2099609 1.3935547.2412109.3183594.4521484.2099609 1.0751953-.2412109 1.3935547l-1.5996094 1.1269531C13.5541992 45.8036156 13.3530273 45.8631859 13.1538086 45.8631859z" opacity=".05" class="color2f1212 svgShape"></path><path fill="#e2e2e2" d="M74.1806183,57.2653084v35.9755211H11.8355646V57.2653084
				c0-1.9003906,1.5405712-3.4409599,3.4409609-3.4409599h55.4631271
				C72.6400452,53.8243484,74.1806183,55.3649178,74.1806183,57.2653084z" class="colore2e2e2 svgShape"></path><path fill="#fdce23" d="M74.1806183,57.2653084v35.9755211H11.8355646V57.2653084
				c0-1.9003906,1.5405712-3.4409599,3.4409609-3.4409599h55.4631271
				C72.6400452,53.8243484,74.1806183,55.3649178,74.1806183,57.2653084z" class="colorfdce23 svgShape"></path><path fill="#ffffff" d="M74.1776199,57.2604713v9.0599403c-5.7600098-4.1799355-12.8500366-6.6499062-20.5100098-6.6499062
					c-18.8400269,0-34.1900024,14.8999062-34.9100342,33.5700722h-6.9199829V57.2604713
					c0-1.9000244,1.539978-3.4400635,3.4400024-3.4400635h55.460022
					C72.6375809,53.8204079,74.1776199,55.3604469,74.1776199,57.2604713z" opacity=".2" class="colorfff svgShape"></path><path fill="#e2e2e2" d="M58.9572716,63.0719261v0.0000076c0,1.7816124-1.4442825,3.2258949-3.2258949,3.2258949H30.2848053
				c-1.7816143,0-3.2258968-1.4442825-3.2258968-3.2258949v-0.0000076c0-1.7816124,1.4442825-3.2258949,3.2258968-3.2258949
				h25.4465714C57.512989,59.8460312,58.9572716,61.2903137,58.9572716,63.0719261z" class="colore2e2e2 svgShape"></path><path fill="#ffffff" d="M58.9475784,62.9705544c-0.3399658-0.1201172-0.7099609-0.1900635-1.0899658-0.1900635H32.4076004
				c-0.8900146,0-1.6900024,0.3599854-2.2800293,0.9500732c-0.5799561,0.5799599-0.9399414,1.3898964-0.9399414,2.279911
				c0,0.0300293,0,0.0699463,0.0099487,0.0999756c-1.25-0.4499512-2.1399536-1.6398926-2.1399536-3.0400429
				c0-0.8898926,0.3599854-1.6899414,0.9499512-2.2799072c0.5800171-0.5799561,1.3900146-0.9400635,2.2800293-0.9400635h25.4400024
				C57.4876175,59.8504372,58.9076004,61.2405739,58.9475784,62.9705544z" class="colorfff svgShape"></path><ellipse cx="42.16" cy="35.459" fill="#ffffff" rx="13.297" ry="13.304" class="colorfff svgShape"></ellipse><ellipse cx="42.16" cy="35.459" fill="#fdce23" rx="13.297" ry="13.304" class="colorfdce23 svgShape"></ellipse><path fill="#ffffff" d="M54.2376175,29.8904781c-2.3600464-2.1400146-5.4899902-3.4499512-8.9400024-3.4499512
						c-7.3400269,0-13.2900391,5.959959-13.2900391,13.3099346c0,1.9901123,0.4400024,3.8699951,1.2200317,5.5600586
						c-2.6799927-2.4300537-4.3599854-5.9500732-4.3599854-9.8499756c0-7.3500957,5.9400024-13.3100567,13.289978-13.3100567
						C47.5175858,22.1504879,52.1375809,25.3204098,54.2376175,29.8904781z" opacity=".4" class="colorfff svgShape"></path><path fill="#e2e2e2" d="M61.9931068,11.9082155c-1.5444183-0.3102589-3.1268349-0.3785591-4.7029228-0.2257118
				c-1.9575424,0.1898403-3.8490334,0.7909203-5.6190872,1.6481886c-1.7447662,0.8450203-4.9101563,2.763731-6.8251877,3.9481125
				c-1.3230934,0.8182869-2.4284782,1.9642372-3.122921,3.3563271c-0.2660904,0.5334015-0.4596062,1.0648308-0.4596062,1.4822941
				v0.0666904c3.5107422-0.2603951,7.0675774,1.1175785,9.543438,3.165659
				c0.2852898-0.1571026,1.0183563-0.6949596,1.2962265-0.8644333c1.9328079-1.1788902,4.7293243-4.1306839,6.9586067-3.7358646
				c0.062294,0.0110359,0.1245499,0.0225048,0.1867409,0.0342846c1.4013062,0.2654438,2.6162071,1.2307339,3.0545616,2.587923
				c0.6420021,1.9876957-0.7075539,3.1552448-3.3337173,3.7973614l-11.2865868,1.536499
				c-1.465847,0.1995525-2.7272491,1.2614803-3.0110588,2.7133675c-0.3983002,2.037569,1.0247383,3.8683567,2.9744873,4.0831814
				l6.9725227,0.7684021l0.0000114,0.0000038c8.5133324,1.433712,17.2619934,0.143322,24.9988708-3.6872215l2.8553314-1.4136772
				V14.8671913C74.7295227,14.2134209,67.8341064,13.0819502,61.9931068,11.9082155z" class="colore2e2e2 svgShape"></path><path fill="#ffffff" d="M82.4776077,14.8704586v3.9300537c-7.039978-0.6600342-13.3400269-1.710083-18.7399902-2.7900391
				c-1.5400391-0.3099365-3.1300049-0.3800049-4.7000122-0.2299805c-1.960022,0.1900635-3.8499756,0.789917-5.6199951,1.6500244
				c-1.75,0.8399658-4.9100342,2.7600098-6.8300171,3.9499512c-0.5299683,0.3200684-1.0200195,0.6999512-1.4699707,1.1300049
				c-1.25-0.2999268-2.5500488-0.4300537-3.8500366-0.3299561v-0.0600586c0-0.4199219,0.1900024-0.9499512,0.460022-1.4899902
				c0.6900024-1.3898926,1.7999878-2.5300293,3.1199951-3.3499756c1.9099731-1.1900635,5.0800171-3.0999756,6.8200073-3.9500732
				c1.7700195-0.8598633,3.6699829-1.4599609,5.6199951-1.6499023c1.5800171-0.1500244,3.1599731-0.0800781,4.710022,0.2299805
				C67.8375931,13.0804195,74.7276077,14.2105465,82.4776077,14.8704586z" class="colorfff svgShape"></path><path fill="#ef4d4d" d="M96.5251389,13.2966146v19.6376762c0,1.0431747-0.8456573,1.8888321-1.8888321,1.8888321H83.776619
				c-1.0431747,0-1.8888321-0.8456573-1.8888321-1.8888321V13.2966146c0-1.0431738,0.8456573-1.888833,1.8888321-1.888833
				h10.8596878C95.6794815,11.4077816,96.5251389,12.2534409,96.5251389,13.2966146z" class="coloref4d4d svgShape"></path><path fill="#ffffff" d="M97.1776199,13.2905025v1.9200439h-8.8099976c-1.0500488,0-1.8900146,0.8499756-1.8900146,1.8898926
					v17.7199688h-2.0499878c-1.0400391,0-1.8900146-0.8498535-1.8900146-1.8898926V13.2905025
					c0-1.0400391,0.8499756-1.8800049,1.8900146-1.8800049h10.8599854
					C96.3275833,11.4104977,97.1776199,12.2504635,97.1776199,13.2905025z" opacity=".4" class="colorfff svgShape"></path><path fill="#ffffff" d="M92.5680008,28.323534c0,1.4990711-1.2163239,2.7082748-2.715477,2.7082748
				c-1.4920807,0-2.7083664-1.2092037-2.7083664-2.7082748c0-1.4992466,1.2162857-2.7155266,2.7083664-2.7155266
				C91.3516769,25.6080074,92.5680008,26.8242874,92.5680008,28.323534z" class="colorfff svgShape"></path><path fill="#2f1212" d="M98.8911133 92.2411194h-5.4326172c-.5527344 0-1 .4472656-1 1s.4472656 1 1 1h5.4326172c.5527344 0 1-.4472656 1-1S99.4438477 92.2411194 98.8911133 92.2411194zM90.0102539 92.2411194H75.1801758V57.2655296c0-2.4492188-1.9921875-4.4414063-4.4404297-4.4414063H15.2768555c-2.4492188 0-4.4414063 1.9921875-4.4414063 4.4414063v35.0222206c-.4375.1066895-.7685547.4827881-.7685547.9533691 0 .5527344.4472656 1 1 1 24.8278656 0 53.7375183 0 78.9433594 0 .5527344 0 1-.4472656 1-1S90.5629883 92.2411194 90.0102539 92.2411194zM12.8354492 92.2411194V57.2655296c0-1.3466797 1.0947266-2.4414063 2.4414063-2.4414063h55.4628906c1.3457031 0 2.4404297 1.0947266 2.4404297 2.4414063v34.9755898H12.8354492zM7.1879883 92.2411194H4.1088867c-.5527344 0-1 .4472656-1 1s.4472656 1 1 1h3.0791016c.5527344 0 1-.4472656 1-1S7.7407227 92.2411194 7.1879883 92.2411194z" class="color2f1212 svgShape"></path><path fill="#2f1212" d="M55.730957 58.8456078H30.284668c-2.3300781 0-4.2255859 1.8964844-4.2255859 4.2265625 0 2.3300819 1.8955078 4.2255898 4.2255859 4.2255898H55.730957c2.3300781 0 4.2265625-1.8955078 4.2265625-4.2255898C59.9575195 60.7420921 58.0610352 58.8456078 55.730957 58.8456078zM55.730957 65.29776H30.284668c-1.2275391 0-2.2255859-.9980469-2.2255859-2.2255898 0-1.2275391.9980469-2.2265625 2.2255859-2.2265625H55.730957c1.2275391 0 2.2265625.9990234 2.2265625 2.2265625C57.9575195 64.2997131 56.9584961 65.29776 55.730957 65.29776zM42.159668 49.7625999c7.1809692 0 13.1205444-5.3303223 14.1259766-12.239502 1.7359619.2155762 3.47229.3244629 5.2021484.3244629 6.4121094 0 12.7294922-1.4746094 18.5732422-4.3681641l1.4765625-.7307129v.1838379c0 1.5927734 1.2958984 2.8886719 2.8886719 2.8886719h10.859375c1.5927734 0 2.8886719-1.2958984 2.8886719-2.8886719V13.2948275c0-1.59375-1.2958984-2.8896484-2.8886719-2.8896484h-10.859375c-1.5927734 0-2.8886719 1.2958984-2.8886719 2.8896484v.4746094c-6.3010254-.5710449-12.6404419-1.4943848-19.3476563-2.8417969-1.6152344-.3242188-3.2958984-.4042969-4.9960938-.2402344-1.9560547.1894531-3.9609375.7753906-5.9580078 1.7431641-1.7197266.8330078-4.7099609 2.6337891-6.9160156 3.9980478-1.5283203.9453125-2.7363281 2.2460938-3.4912109 3.7597656-.196167.392334-.3382568.7492676-.4318848 1.0861816C33.3435059 22.1480999 27.862793 28.1695843 27.862793 35.458889 27.862793 43.3456078 34.2758789 49.7625999 42.159668 49.7625999zM83.5375977 13.2948275c0-.4902344.3984375-.8896484.8886719-.8896484h10.859375c.4902344 0 .8886719.3994141.8886719.8896484v19.6376953c0 .4902344-.3984375.8886719-.8886719.8886719h-10.859375c-.4902344 0-.8886719-.3984375-.8886719-.8886719V13.2948275zM42.6176758 21.0809612c.5898438-1.1806641 1.5419922-2.2011719 2.7548828-2.9511719 1.7724495-1.0966797 5.0058594-3.0615244 6.7353516-3.8984385 1.7832031-.8642578 3.5585938-1.3867188 5.2792969-1.5537109 1.5029297-.1445313 2.9873047-.0751953 4.4082031.2109375 6.8193359 1.3701172 13.2666016 2.3193359 19.6777344 2.8955078v14.7646494L79.1743164 31.68643c-7.5966797 3.7626934-16.0283203 5.0078106-24.4462891 3.5898418l-6.9726563-.7685547c-.6699219-.0732422-1.2832031-.4277344-1.6826172-.9716797-1.1620026-1.5820045-.0589905-3.5948238 1.7451172-3.8388653l11.2861328-1.5371094c.0341797-.0048828.0683594-.0117188.1025391-.0195313 1.9970703-.4882813 3.2626953-1.2529297 3.8681641-2.3369141.4472656-.8007813.5078125-1.7226563.1796875-2.7392578-.5390625-1.6689453-2.0029297-2.9199219-3.8212891-3.2626953l-.1962891-.0361328c-.2001953-.0361328-.4003906-.0527344-.6005859-.0527344-1.8535156 0-3.7148438 1.4306641-5.3759766 2.7060547-.6123047.4707031-1.1904297.9150391-1.6787109 1.2128906-.1298828.0791016-.3515625.2314453-.5859375.3935547-.0449219.03125-.0908203.0634766-.1357422.0947266-.0560303-.041748-.1160889-.0776367-.1727295-.1185303-2.2333374-1.6745605-4.9690552-2.7060547-7.9402466-2.8275146-.0560303-.0028076-.1123047-.0109863-.1682739-.0129395C42.5913086 21.1356487 42.6040039 21.108305 42.6176758 21.0809612zM52.3832397 25.4980755c.0953369-.0653076.180481-.1226807.2402954-.1593018.5791016-.3525391 1.1992188-.8291016 1.8554688-1.3339844 1.4384766-1.1035156 3.2226563-2.4863281 4.4111328-2.2695313l.1728516.03125c1.0976563.2070313 1.9746094.9404297 2.2890625 1.9130859.203125.6289063.0839844.9570313-.0234375 1.1484375-.2148438.3847656-.8310547.9306641-2.546875 1.3574219l-5.2058105.7087402C53.2077637 26.403471 52.8096924 25.9374065 52.3832397 25.4980755zM41.8317261 23.170805c.1478271-.0043945.295105-.0113525.4437866-.0095215 3.1743011.0300388 6.6018562 1.4362259 8.9697876 4.0501709-2.7665482.5557976-4.6981239.119936-6.399292 1.8588867-.5697021-.1347656-1.1557007-.2386475-1.7694702-.2800293l-.4048462-.0274658.000061-1.3916016c0-.1325684-.0432129-.2404785-.1295776-.3276367-.0787354-.0783691-.1973267-.1237793-.3251953-.1237793-.1295776 0-.2473145.0461426-.3192749.1245117-.0796509.0872803-.1203003.1972656-.1203003.3269043l-.000061 1.4084473-.3870239.0415039c-.7520752.0808105-1.4152222.2705078-1.9699707.5634766-.6563721.3459473-1.1594849.8050537-1.4957275 1.364502-.3345337.5584717-.5047607 1.1813965-.5048218 1.8508282 0 .7719727.208313 1.4055176.619873 1.8835449.4082031.4777832.9172363.8486328 1.5117798 1.1019287.5148926.2202148 1.1568604.4366455 1.9072266.6433105l.3184204.0877686-.0001221 4.2006836-.4666748-.0356445c-1.045105-.0800781-2.0105591-.314209-2.8659668-.6958008-.1117554-.0490723-.2362671-.0749512-.3599243-.0749512-.2235718 0-.4319458.083374-.5725098.2319336-.1473999.1525879-.2219238.3400879-.2219238.557373 0 .1697998.0499878.317627.1541138.4534912.1016235.1334229.2286987.2325439.3828125.2965088 1.0950317.4763184 2.2891846.7681885 3.550293.8673096l.3997192.0313721-.000061 1.411377c0 .1308594.0406494.2370605.1236572.3193359.0762329.0783691.1820679.1176758.314209.1176758.1312866 0 .2422485-.0402832.3269043-.1181641.0872192-.0808105.1295776-.1850586.1295776-.3188477l.000061-1.407959.385376-.0432129c.7105713-.0787354 1.3491211-.2557373 1.8979492-.5253906.6572266-.3218994 1.1721802-.7524414 1.531311-1.2801514.3607788-.5272217.5437012-1.1348877.5437622-1.8060303 0-.8193359-.208313-1.4838867-.6190186-1.9750977-.4099121-.4907227-.9188843-.8647461-1.5134277-1.1124268-.5123901-.213501-1.1509399-.4163818-1.8970947-.6031494l-.3286133-.081665.0001221-4.3684063.4641113.0330811c.2601318.0183105.5161133.0656738.7728882.107666-.0925903.2347412-.1691895.4771729-.218689.7299805-.2431641 1.2451153.0302734 2.4863262.7714844 3.4931622.7294922.9931641 1.8505859 1.640625 3.0751953 1.7753906l6.7747192.7451172c-.8676758 5.9403076-5.9779663 10.5214844-12.1516724 10.5214844-6.7802734 0-12.296875-5.5195313-12.296875-12.3037109C29.862793 28.7845745 35.2038574 23.3469524 41.8317261 23.170805zM42.6714478 36.5210228l.5623779.1744385c.59198.1838379 1.0645752.3808594 1.4041748.5849609.4462891.2684326.6630859.630127.6630859 1.105957-.000061 1.1408691-.7165527 1.8289795-2.1309204 2.0444336l-.4988403.0761719L42.6714478 36.5210228zM41.7772827 30.3812542l-.0001221 4.1435528-.5623169-.1740723c-.5809937-.1799316-1.0501709-.3840332-1.395752-.6072998-.4454346-.2904053-.6707153-.7191162-.6707153-1.2729492.000061-.5889874.2388916-1.0510235.7301025-1.4117413.3684082-.2727051.833374-.4663086 1.3804932-.574707L41.7772827 30.3812542z" class="color2f1212 svgShape"></path><path fill="#2f1212" d="M89.8520508,32.0321312c2.0488281,0,3.7158203-1.6640606,3.7158203-3.7089825
				c0-2.0488281-1.6669922-3.7148438-3.7158203-3.7148438c-2.0449219,0-3.7080078,1.6660156-3.7080078,3.7148438
				C86.144043,30.3680706,87.8071289,32.0321312,89.8520508,32.0321312z M89.8520508,26.608305
				c0.9462891,0,1.7158203,0.7695313,1.7158203,1.7148438c0,0.9423828-0.7695313,1.7089844-1.7158203,1.7089844
				c-0.9414063,0-1.7080078-0.7666016-1.7080078-1.7089844C88.144043,27.3778362,88.9106445,26.608305,89.8520508,26.608305z" class="color2f1212 svgShape"></path></svg></g></svg>