<svg id="SvgjsSvg1027" width="256" height="256" xmlns="http://www.w3.org/2000/svg" version="1.1" xmlns:xlink="http://www.w3.org/1999/xlink" xmlns:svgjs="http://svgjs.com/svgjs"><defs id="SvgjsDefs1028"></defs><g id="SvgjsG1029"><svg xmlns="http://www.w3.org/2000/svg" enable-background="new 0 0 32 32" viewBox="0 0 32 32" width="256" height="256"><path fill="#ffe0b2" d="M25.687,19.197c-0.223,0.416-0.784,0.75-1.256,0.746l-1.737-0.017c-2.828-0.006-5.193,2.282-5.193,5.11V31h6v-4.538l3.563-2.792c0.369-0.294,0.873-0.885,1.056-1.319l2.382-5.537v-4.819c0-0.604-2.102-1.509-2.705,0.904c-0.318,1.275-0.236,2.266-0.387,3.098L25.687,19.197z" class="colorFFE0B2 svgShape"></path><path fill="#ffe0b2" d="M21.43 20.11l1.811 1.81 4.38-4.38c-.3-.3-1.81-1.81-3.94.32L21.43 20.11zM6.313 19.197c.223.416.784.75 1.256.746l1.737-.017c2.828-.006 5.193 2.282 5.193 5.11V31h-6v-4.538L4.938 23.67c-.369-.294-.873-.885-1.056-1.319L1.5 16.813v-4.819c0-.604 2.102-1.509 2.705.904.318 1.275.236 2.266.387 3.098L6.313 19.197z" class="colorFFE0B2 svgShape"></path><path fill="#ffe0b2" d="M10.57,20.11L8.76,21.92l-4.38-4.38c0.3-0.3,1.81-1.81,3.94,0.32L10.57,20.11z" class="colorFFE0B2 svgShape"></path><path fill="#ff8a80" d="M19.924,3.565c-1.632,0-3.071,0.825-3.924,2.081c-0.853-1.256-2.292-2.081-3.925-2.081c-2.619,0-4.741,2.124-4.741,4.743C7.334,13.869,16,18.5,16,18.5s8.666-4.631,8.666-10.191C24.666,5.689,22.544,3.565,19.924,3.565z" class="colorFF8A80 svgShape"></path><path fill="#ffffff" d="M19.924,3.565c-1.632,0-3.071,0.825-3.924,2.081c-0.853-1.256-2.292-2.081-3.925-2.081c-2.619,0-4.741,2.124-4.741,4.743C7.334,13.869,16,18.5,16,18.5s8.666-4.631,8.666-10.191C24.666,5.689,22.544,3.565,19.924,3.565z" class="colorFFF svgShape"></path><path fill="#ff8a80" d="M24.645,7.831c-0.012-0.041-0.025-0.083-0.039-0.125c-0.816-1.431-2.338-2.407-4.104-2.407c-1.221,0-2.334,0.462-3.174,1.221c-0.42,0.378-1.07,0.39-1.488,0.011c-0.809-0.733-1.87-1.192-3.039-1.229C11.439,5.26,10.177,5.92,9.248,6.916C7.902,8.358,7.772,9.717,8.003,11.02C10.023,15.294,16,18.5,16,18.5S25.168,13.601,24.645,7.831z" class="colorFF8A80 svgShape"></path><path fill="#f27670" d="M24.027,5.973c0.026,0.2,0.062,0.396,0.062,0.603c0,2.66-1.983,5.106-4.052,6.936c-2.647,2.341-6.61,2.319-9.25-0.029c-1.326-1.18-2.615-2.614-3.361-4.195C8.334,14.4,16,18.5,16,18.5s8.666-4.631,8.666-10.191C24.666,7.454,24.423,6.665,24.027,5.973z" class="colorF27670 svgShape"></path><g><path fill="#455a64" d="M23.5 31c.276 0 .5-.224.5-.5v-3.795l3.371-2.642c.422-.336.988-.995 1.208-1.52l2.38-5.533C30.986 16.948 31 16.882 31 16.813v-4.819c0-.622-.705-1.08-1.386-1.164-.856-.106-1.905.352-2.304 1.947-.207.829-.253 1.53-.293 2.148-.018.275.189.534.465.553.279.001.512-.171.53-.445.041-.618.083-1.271.269-2.014.125-.503.396-1.119.973-1.196.379-.056.708.152.762.246L30 16.71l-2.342 5.443c-.146.348-.599.88-.908 1.125l-3.56 2.79C23.071 26.163 23 26.309 23 26.462V30.5C23 30.776 23.224 31 23.5 31zM8.5 31C8.224 31 8 30.776 8 30.5v-3.795l-3.371-2.642c-.422-.336-.988-.995-1.208-1.52l-2.38-5.533C1.014 16.948 1 16.882 1 16.813v-4.819c0-.622.705-1.08 1.386-1.164.856-.106 1.905.352 2.304 1.947.207.829.253 1.53.293 2.148.018.275-.189.534-.465.553-.279.001-.512-.171-.53-.445-.041-.618-.083-1.271-.269-2.014-.125-.503-.396-1.119-.973-1.196-.379-.056-.708.152-.762.246L2 16.71l2.342 5.443c.146.348.599.88.908 1.125l3.56 2.79C8.929 26.163 9 26.309 9 26.462V30.5C9 30.776 8.776 31 8.5 31zM14.5 31c-.276 0-.5-.224-.5-.5v-5.463c0-2.107-1.455-3.944-3.539-4.468-.268-.067-.43-.34-.363-.607s.339-.43.607-.363C13.234 20.235 15 22.471 15 25.037V30.5C15 30.776 14.776 31 14.5 31z" class="color455A64 svgShape"></path><path fill="#455a64" d="M8.762 22.417c-.128 0-.256-.049-.354-.146l-4.387-4.38c-.094-.094-.146-.221-.146-.354s.053-.26.146-.354c.175-.175.707-.707 1.532-.887.717-.157 1.837-.073 3.117 1.207l2.254 2.25c.196.194.196.511.001.707-.195.195-.512.195-.707 0l-2.255-2.25c-1.026-1.025-1.983-1.242-2.852-.644l4.002 3.996c.195.194.195.512 0 .707C9.018 22.368 8.89 22.417 8.762 22.417zM17.5 31c-.276 0-.5-.224-.5-.5v-5.463c0-2.566 1.766-4.802 4.295-5.438.268-.064.539.096.607.363.067.268-.095.54-.363.607C19.455 21.093 18 22.93 18 25.037V30.5C18 30.776 17.776 31 17.5 31z" class="color455A64 svgShape"></path><path fill="#455a64" d="M23.238,22.417c-0.128,0-0.256-0.049-0.354-0.146c-0.195-0.195-0.195-0.513,0-0.707l4.002-3.996c-0.87-0.599-1.825-0.382-2.851,0.644l-2.255,2.25c-0.195,0.195-0.512,0.195-0.707,0c-0.195-0.196-0.195-0.513,0.001-0.707l2.255-2.25c1.279-1.28,2.399-1.364,3.117-1.207c0.825,0.18,1.357,0.712,1.532,0.887c0.094,0.094,0.146,0.221,0.146,0.354s-0.053,0.26-0.146,0.354l-4.387,4.38C23.494,22.368,23.366,22.417,23.238,22.417z" class="color455A64 svgShape"></path><path fill="#455a64" d="M23.238 22.417c-.128 0-.256-.049-.354-.146-.195-.195-.195-.513 0-.707l4.002-3.996c-.87-.599-1.825-.382-2.851.644l-2.255 2.25c-.195.195-.512.195-.707 0-.195-.196-.195-.513.001-.707l2.255-2.25c1.279-1.28 2.399-1.364 3.117-1.207.825.18 1.357.712 1.532.887.094.094.146.221.146.354s-.053.26-.146.354l-4.387 4.38C23.494 22.368 23.366 22.417 23.238 22.417zM16 19c-.081 0-.162-.02-.236-.059-.364-.195-8.93-4.839-8.93-10.633 0-2.891 2.351-5.243 5.241-5.243 1.512 0 2.936.65 3.925 1.768.988-1.117 2.412-1.768 3.924-1.768 2.891 0 5.242 2.353 5.242 5.243 0 5.794-8.566 10.438-8.93 10.633C16.162 18.98 16.081 19 16 19zM12.075 4.065c-2.338 0-4.241 1.903-4.241 4.243 0 4.703 6.802 8.837 8.166 9.618 1.363-.781 8.166-4.92 8.166-9.618 0-2.34-1.903-4.243-4.242-4.243-1.407 0-2.719.696-3.51 1.862-.186.273-.642.273-.827 0C14.795 4.762 13.482 4.065 12.075 4.065zM27.031 6.124c-.231 0-.438-.161-.489-.396-.057-.271.115-.536.385-.594l1.469-.313c.268-.054.535.115.593.385.057.271-.115.536-.385.594l-1.469.313C27.1 6.12 27.065 6.124 27.031 6.124zM26.197 3.839c-.149 0-.296-.066-.395-.192-.17-.218-.131-.531.086-.701l1.184-.925c.217-.173.532-.131.702.086.17.218.131.531-.086.701l-1.184.925C26.413 3.805 26.304 3.839 26.197 3.839zM4.969 6.124c-.035 0-.069-.004-.104-.011L3.396 5.801c-.27-.058-.442-.323-.385-.594.058-.27.323-.438.593-.385l1.469.313c.27.058.442.323.385.594C5.408 5.963 5.2 6.124 4.969 6.124zM5.804 3.839c-.107 0-.216-.034-.307-.105L4.313 2.809c-.218-.17-.256-.484-.086-.702C4.395 1.89 4.709 1.849 4.928 2.02l1.185.925c.218.17.256.484.086.702C6.1 3.772 5.953 3.839 5.804 3.839z" class="color455A64 svgShape"></path></g></svg></g></svg>