<svg id="SvgjsSvg1033" width="256" height="256" xmlns="http://www.w3.org/2000/svg" version="1.1" xmlns:xlink="http://www.w3.org/1999/xlink" xmlns:svgjs="http://svgjs.com/svgjs"><defs id="SvgjsDefs1034"></defs><g id="SvgjsG1035"><svg xmlns="http://www.w3.org/2000/svg" viewBox="0 0 512 512" width="256" height="256"><polygon fill="#c0e7f9" points="152 384 144 384 24 416 24 96 78.24 81.54 144 64 144.68 91.15 146.03 145.04 148.18 231.07 149.06 266.48 150.38 319.23 152 384" class="colorc0f5f9 svgShape"></polygon><polygon fill="#a8cada" points="256 416 144 384 144 64 256 96 272 112 256 416" class="colora8d6da svgShape"></polygon><polygon fill="#c0e7f9" points="368 384 256 416 256 96 368 64 384 376 368 384" class="colorc0f5f9 svgShape"></polygon><polygon fill="#a8cada" points="488 416 368 384 368 64 488 96 488 416" class="colora8d6da svgShape"></polygon><path fill="#48bdf5" d="M201.981,154.865c16.411-23.246,18.847-54.019,5.008-78.882-11.646-20.922-33.273-36.144-60.265-37.056q-1.356-.047-2.724-.046t-2.724.046c-26.992.912-48.619,16.134-60.265,37.056-13.839,24.863-11.4,55.636,5.008,78.882L144,236.994Z" class="colorf55648 svgShape"></path><circle cx="144" cy="118.126" r="27" fill="#cbcbcb" class="colorcbcbcb svgShape"></circle><path fill="#6cbee5" d="M32.5 296a8 8 0 0 1-8 8H24V288h.5A8 8 0 0 1 32.5 296zM354 160h-.99a8 8 0 0 0 0 16H354a8 8 0 0 0 0-16zm33.61 0h-.99a8 8 0 0 0 0 16h.99a8 8 0 0 0 0-16zm33.61 0h-.99a8 8 0 0 0 0 16h.99a8 8 0 0 0 0-16zm33.61 0h-.99a8 8 0 1 0 0 16h.99a8 8 0 0 0 0-16zm-126.71 6.7a7.988 7.988 0 0 0-10.09-5.11c-.42.13-.84.28-1.25.43a8 8 0 0 0 2.81 15.5 8.133 8.133 0 0 0 2.8-.51c.2-.08.41-.15.61-.22A8 8 0 0 0 328.12 166.7zM304 187.5a8 8 0 0 0-8 8v.99a8 8 0 0 0 16 0v-.99A8 8 0 0 0 304 187.5zm0 33.61a8 8 0 0 0-8 8v.99a8 8 0 1 0 16 0v-.99A8 8 0 0 0 304 221.11zm0 33.61a8 8 0 0 0-8 8v.99a8 8 0 1 0 16 0v-.99A8 8 0 0 0 304 254.72zm-4.52 33.41a7.994 7.994 0 0 0-11.02-2.54l-.57.33a8 8 0 1 0 7.91 13.91c.38-.21.76-.44 1.13-.67A8.008 8.008 0 0 0 299.48 288.13zM58.11 288h-.99a8 8 0 0 0 0 16h.99a8 8 0 1 0 0-16zm33.61 0h-.99a8 8 0 0 0 0 16h.99a8 8 0 1 0 0-16zm67.22 0h-.99a8 8 0 0 0 0 16h.99a8 8 0 0 0 0-16zm33.61 0h-.99a8 8 0 0 0 0 16h.99a8 8 0 0 0 0-16zm33.61 0h-.99a8 8 0 1 0 0 16h.99a8 8 0 0 0 0-16zm36.55.56a7.969 7.969 0 0 0-2.94-.56h-.99a8 8 0 0 0 0 16h.99a8 8 0 0 0 2.94-15.44zM488 176h-.5a8 8 0 0 1 0-16h.5z" class="color6cbae5 svgShape"></path><circle cx="368" cy="320" r="40" fill="#40befb" class="colorfbb540 svgShape"></circle><path fill="#2aa1da" d="M370.389,345.729a8,8,0,0,1-7.411-11.006l6.326-15.612-16.844.165h-.079a8,8,0,0,1-.077-16L381.147,303h.079a8,8,0,0,1,7.414,11l-10.834,26.732A8,8,0,0,1,370.389,345.729Z" class="colorda922a svgShape"></path><circle cx="144" cy="293" r="27" fill="#2aa3dd" class="color428dc5 svgShape"></circle><circle cx="371" cy="165" r="27" fill="#2aa3dd" class="color428dc5 svgShape"></circle></svg></g></svg>