<svg id="SvgjsSvg1027" width="256" height="256" xmlns="http://www.w3.org/2000/svg" version="1.1" xmlns:xlink="http://www.w3.org/1999/xlink" xmlns:svgjs="http://svgjs.com/svgjs"><defs id="SvgjsDefs1028"></defs><g id="SvgjsG1029"><svg xmlns="http://www.w3.org/2000/svg" viewBox="0 0 74 74" width="256" height="256"><path d="M44.66 72c-6.61 0-17.08-5.91-26.9-15.73-6-6-10.8-12.53-13.49-18.36-2.84-6.14-3-10.9-.52-13.4l3.83-3.83a7.59 7.59 0 0110.75 0L22.67 25a7.6 7.6 0 010 10.75l-1.1 1.11c-1.32 1.31.24 5.71 5.05 10.52s9.21 6.37 10.53 5.06l1.1-1.11a7.62 7.62 0 0110.75 0l4.34 4.35a7.6 7.6 0 010 10.75l-3.82 3.82A6.62 6.62 0 0144.66 72zM13 20.42a5.61 5.61 0 00-4 1.64L5.16 25.89c-1.84 1.84-1.5 5.9.93 11.15C8.68 42.66 13.32 49 19.17 54.82 32 67.67 44.5 72.43 48.1 68.83L51.93 65a5.61 5.61 0 000-7.92l-4.34-4.34a5.61 5.61 0 00-7.93 0l-1.1 1.1c-2.48 2.48-7.85.45-13.35-5.06s-7.54-10.86-5.06-13.35l1.11-1.1a5.61 5.61 0 000-7.92l-4.35-4.35A5.58 5.58 0 0013 20.42zM72 42.05H70A38.09 38.09 0 0032 4V2A40.09 40.09 0 0172 42.05z" fill="#2aa3dd" class="color000 svgShape"></path><path d="M59 42.05H57A25.05 25.05 0 0032 17V15A27.06 27.06 0 0159 42.05zM46 42.05H44A12 12 0 0032 30V28A14 14 0 0146 42.05z" fill="#2aa3dd" class="color000 svgShape"></path></svg></g></svg>