<svg id="SvgjsSvg1065" width="256" height="256" xmlns="http://www.w3.org/2000/svg" version="1.1" xmlns:xlink="http://www.w3.org/1999/xlink" xmlns:svgjs="http://svgjs.com/svgjs"><defs id="SvgjsDefs1066"></defs><g id="SvgjsG1067"><svg xmlns="http://www.w3.org/2000/svg" viewBox="0 0 53 53" width="256" height="256"><path fill="#f7c9a9" d="M47.734 33.196a1.34 1.34 0 0 0-.423.97v4.226H37.89v-4.341c0-.297-.099-.583-.28-.813a8.3 8.3 0 0 1-1.775-5.127v-8.285c0-.654.53-1.185 1.184-1.185h.002c.655 0 1.185.531 1.185 1.185v4.381c0 .183.149.331.331.331h.001a.332.332 0 0 0 .331-.331v-7.04c0-.654.53-1.184 1.185-1.184h.002c.653 0 1.185.53 1.185 1.184v6.144c0 .182.147.33.33.33h.003a.331.331 0 0 0 .331-.33v-6.925a1.186 1.186 0 0 1 2.37 0v6.925c0 .182.148.33.33.33h.004a.332.332 0 0 0 .331-.33v-6.144c0-.654.53-1.184 1.185-1.184h.002c.654 0 1.184.53 1.184 1.184v9.094a.33.33 0 1 0 .663 0v-2.398a1.265 1.265 0 0 1 1.263-1.262c.696 0 1.263.565 1.263 1.262v2.88a8.943 8.943 0 0 1-.835 3.77 8.94 8.94 0 0 1-1.931 2.683z" class="colorf7c9a9 svgShape"></path><path fill="#f0b68e" d="M37.89 34.325h9.421v4.067H37.89z" class="colorf0b68e svgShape"></path><path fill="#f0b68e" d="M35.836 19.825v8.286c0 1.864.624 3.67 1.776 5.13.176.228.28.514.28.807v4.345h.719v-4.345c0-.293-.103-.58-.28-.807a8.277 8.277 0 0 1-1.776-5.13v-8.286c0-.529.345-.97.823-1.123a1.18 1.18 0 0 0-1.541 1.123z" class="colorf0b68e svgShape"></path><path fill="#e4e3ff" d="M37.52 35.735v1.484h10.05v-1.484a.684.684 0 0 0-.683-.684h-8.683a.684.684 0 0 0-.684.684z" class="colore4e3ff svgShape"></path><path fill="#d0d0f7" d="M37.517 35.736v1.483h10.055v-.793h-8.08c-.757 0-1.366-.609-1.366-1.365a.677.677 0 0 0-.609.675z" class="colord0d0f7 svgShape"></path><path fill="#f9b938" d="M48.537 38.016v11.386c0 .568-.46 1.028-1.028 1.028h-9.928c-.567 0-1.027-.46-1.027-1.028V38.016c0-.567.46-1.027 1.027-1.027h9.928c.568 0 1.028.46 1.028 1.027z" class="colorf9b938 svgShape"></path><path fill="#ecb021" d="M48.535 38.019v11.383c0 .566-.455 1.028-1.027 1.028h-9.923a1.026 1.026 0 0 1-1.028-1.006h9.945c.573 0 1.028-.462 1.028-1.027V36.992a1.021 1.021 0 0 1 1.005 1.027z" class="colorecb021 svgShape"></path><path fill="#ffffff" d="M49.287 28.055c.033-.191.059-.385.077-.58a.367.367 0 0 0-.731-.066c-.017.175-.04.35-.07.524a.367.367 0 1 0 .724.122zm-2.312 4.343a7.818 7.818 0 0 0 1.996-3.105.367.367 0 0 0-.694-.24c-.08.233-.17.46-.273.681a7.085 7.085 0 0 1-1.535 2.133.367.367 0 1 0 .506.531z" opacity=".3" class="colorfff svgShape"></path><path fill="#f7c9a9" d="M14.4 33.196a1.34 1.34 0 0 0-.423.97v4.226H4.555v-4.341c0-.297-.098-.583-.28-.813A8.3 8.3 0 0 1 2.5 28.11v-8.285c0-.654.53-1.185 1.185-1.185h.002c.654 0 1.184.531 1.184 1.185v4.381a.332.332 0 0 0 .664 0v-7.04c0-.654.53-1.184 1.184-1.184h.002c.654 0 1.185.53 1.185 1.184v6.144c0 .182.148.33.331.33h.002a.331.331 0 0 0 .332-.33v-6.925c0-.65.527-1.185 1.184-1.185.655 0 1.185.532 1.185 1.185v6.925c0 .182.149.33.331.33h.003a.332.332 0 0 0 .331-.33v-6.144c0-.654.53-1.184 1.185-1.184h.002c.654 0 1.185.53 1.185 1.184v9.094a.33.33 0 1 0 .662 0v-2.398a1.265 1.265 0 0 1 1.264-1.262c.695 0 1.262.565 1.262 1.262v2.88a8.943 8.943 0 0 1-.835 3.77 8.94 8.94 0 0 1-1.93 2.683z" class="colorf7c9a9 svgShape"></path><path fill="#f0b68e" d="M4.555 34.325h9.421v4.067H4.555z" class="colorf0b68e svgShape"></path><path fill="#f0b68e" d="M2.502 19.825v8.286c0 1.864.624 3.67 1.776 5.13.176.228.279.514.279.807v4.345h.719v-4.345c0-.293-.103-.58-.28-.807a8.277 8.277 0 0 1-1.775-5.13v-8.286c0-.529.345-.97.822-1.123a1.18 1.18 0 0 0-1.541 1.123z" class="colorf0b68e svgShape"></path><path fill="#e4e3ff" d="M4.185 35.735v1.484h10.051v-1.484a.684.684 0 0 0-.684-.684H4.87a.684.684 0 0 0-.684.684z" class="colore4e3ff svgShape"></path><path fill="#d0d0f7" d="M4.182 35.736v1.483h10.055v-.793h-8.08c-.756 0-1.365-.609-1.365-1.365a.677.677 0 0 0-.61.675z" class="colord0d0f7 svgShape"></path><path fill="#fc6559" d="M15.202 38.016v11.386c0 .568-.46 1.028-1.027 1.028H4.247c-.568 0-1.028-.46-1.028-1.028V38.016c0-.567.46-1.027 1.028-1.027h9.928c.567 0 1.027.46 1.027 1.027z" class="colorfc6559 svgShape"></path><path fill="#f05543" d="M15.2 38.019v11.383c0 .566-.455 1.028-1.027 1.028H4.25a1.026 1.026 0 0 1-1.027-1.006h9.945c.572 0 1.027-.462 1.027-1.027V36.992a1.021 1.021 0 0 1 1.006 1.027z" class="colorf05543 svgShape"></path><path fill="#ffffff" d="M15.953 28.055c.032-.191.058-.385.076-.58a.367.367 0 0 0-.73-.066c-.017.175-.04.35-.07.524a.367.367 0 1 0 .724.122zm-2.313 4.343a7.818 7.818 0 0 0 1.997-3.105.367.367 0 0 0-.694-.24 7.084 7.084 0 0 1-1.808 2.813.367.367 0 1 0 .505.532z" opacity=".3" class="colorfff svgShape"></path><path fill="#f7c9a9" d="M19.893 25.1c.335.32.53.755.53 1.217v5.29h11.796v-5.435c0-.371.123-.73.35-1.019a10.392 10.392 0 0 0 2.223-6.42V8.36c0-.818-.664-1.483-1.483-1.483h-.003c-.82 0-1.483.665-1.483 1.483v5.486a.415.415 0 0 1-.415.415h-.001a.415.415 0 0 1-.415-.415V5.032c0-.82-.664-1.483-1.483-1.483h-.003c-.818 0-1.483.663-1.483 1.483v7.692a.415.415 0 0 1-.415.415h-.002a.415.415 0 0 1-.415-.415v-8.67c0-.814-.66-1.484-1.483-1.484-.82 0-1.483.666-1.483 1.483v8.671a.415.415 0 0 1-.415.415h-.004a.415.415 0 0 1-.415-.415V5.032c0-.82-.664-1.483-1.483-1.483h-.003c-.819 0-1.483.663-1.483 1.483v11.386a.414.414 0 1 1-.83 0v-3.002a1.584 1.584 0 0 0-1.582-1.58c-.87 0-1.58.707-1.58 1.58v3.606c0 1.649.366 3.258 1.045 4.72a11.193 11.193 0 0 0 2.418 3.359z" class="colorf7c9a9 svgShape"></path><path fill="#f0b68e" d="M20.422 26.515h11.796v5.093H20.422z" class="colorf0b68e svgShape"></path><path fill="#f0b68e" d="M34.79 8.36v10.374c0 2.334-.781 4.595-2.224 6.424-.22.285-.35.643-.35 1.01v5.44h-.9v-5.44c0-.367.129-.725.35-1.01a10.363 10.363 0 0 0 2.224-6.424V8.36c0-.662-.432-1.213-1.03-1.406a1.479 1.479 0 0 1 1.93 1.406z" class="colorf0b68e svgShape"></path><path fill="#e4e3ff" d="M32.682 28.28v1.858H20.097V28.28c0-.472.383-.856.856-.856h10.873c.473 0 .856.384.856.856z" class="colore4e3ff svgShape"></path><path fill="#d0d0f7" d="M32.686 28.282v1.857h-12.59v-.993h10.118c.946 0 1.709-.763 1.709-1.71a.848.848 0 0 1 .763.846z" class="colord0d0f7 svgShape"></path><path fill="#474646" d="M33.892 31.137v18.006c0 .711-.576 1.287-1.287 1.287h-12.43c-.711 0-1.287-.576-1.287-1.287V31.137c0-.71.576-1.287 1.286-1.287h12.431c.71 0 1.287.576 1.287 1.287z" class="color474646 svgShape"></path><path fill="#2d2c2c" d="M33.89 31.14v18.003c0 .708-.57 1.287-1.287 1.287H20.18c-.708 0-1.269-.56-1.287-1.259h12.452c.717 0 1.286-.579 1.286-1.287v-18.03c.708.018 1.26.579 1.26 1.286z" class="color2d2c2c svgShape"></path><path fill="#ffffff" d="M17.948 18.664a9.768 9.768 0 0 1-.096-.725.46.46 0 0 1 .915-.084c.021.22.05.439.087.657a.46.46 0 1 1-.906.152zm2.895 5.439a9.79 9.79 0 0 1-2.5-3.889.46.46 0 0 1 .87-.3c.1.291.214.576.342.853a8.87 8.87 0 0 0 1.922 2.67.46.46 0 1 1-.634.666z" opacity=".3" class="colorfff svgShape"></path><path fill="#a0a0a0" d="M20.833 46.871a.505.505 0 0 1-.505-.505v-6.892a.505.505 0 1 1 1.01 0v6.892c0 .279-.226.505-.505.505z" opacity=".3" class="colora0a0a0 svgShape"></path><path fill="#ffffff" d="M38.108 47.588a.403.403 0 0 1-.404-.404V41.68a.403.403 0 1 1 .807 0v5.504c0 .223-.18.404-.403.404zM4.773 47.588a.403.403 0 0 1-.403-.404V41.68a.403.403 0 1 1 .807 0v5.504c0 .223-.181.404-.404.404z" opacity=".3" class="colorfff svgShape"></path></svg></g></svg>